<?xml version="1.0" encoding="UTF-8" standalone="no"?>
<!-- Created with Inkscape (http://www.inkscape.org/) -->
<svg
   xmlns:dc="http://purl.org/dc/elements/1.1/"
   xmlns:cc="http://web.resource.org/cc/"
   xmlns:rdf="http://www.w3.org/1999/02/22-rdf-syntax-ns#"
   xmlns:svg="http://www.w3.org/2000/svg"
   xmlns="http://www.w3.org/2000/svg"
   xmlns:sodipodi="http://inkscape.sourceforge.net/DTD/sodipodi-0.dtd"
   xmlns:inkscape="http://www.inkscape.org/namespaces/inkscape"
   width="566.92999"
   height="885.83002"
   id="svg2"
   sodipodi:version="0.32"
   inkscape:version="0.43"
   sodipodi:docbase="/cds/tmp"
   sodipodi:docname="VolleyballRotation.svg"
   version="1.0">
  <defs
     id="defs4" />
  <sodipodi:namedview
     id="base"
     pagecolor="#ffffff"
     bordercolor="#666666"
     borderopacity="1.0"
     inkscape:pageopacity="1"
     inkscape:pageshadow="2"
     inkscape:zoom="0.52784375"
     inkscape:cx="283.46457"
     inkscape:cy="634.62581"
     inkscape:document-units="cm"
     inkscape:current-layer="layer3"
     inkscape:window-width="942"
     inkscape:window-height="877"
     inkscape:window-x="328"
     inkscape:window-y="0"
     showguides="true"
     inkscape:guide-bbox="true" />
  <metadata
     id="metadata7">
    <rdf:RDF>
      <cc:Work
         rdf:about="">
        <dc:format>image/svg+xml</dc:format>
        <dc:type
           rdf:resource="http://purl.org/dc/dcmitype/StillImage" />
        <dc:title>Volleybal court</dc:title>
        <dc:date>2007-01-27</dc:date>
        <dc:creator>
          <cc:Agent>
            <dc:title>David Martín</dc:title>
          </cc:Agent>
        </dc:creator>
        <dc:source>http://commons.wikimedia.org</dc:source>
        <dc:description>Volleyball court</dc:description>
      </cc:Work>
    </rdf:RDF>
  </metadata>
  <g
     inkscape:label="Campo"
     inkscape:groupmode="layer"
     id="layer1"
     style="display:inline">
    <path
       style="color:#000000;fill:#61995e;fill-opacity:1;fill-rule:evenodd;stroke:none;stroke-width:0.99999964;stroke-linecap:butt;stroke-linejoin:miter;marker:none;marker-start:none;marker-mid:none;marker-end:none;stroke-miterlimit:4;stroke-dashoffset:0;stroke-opacity:1;visibility:visible;display:inline;overflow:visible"
       d="M 2.0545631e-17,2e-05 L 569.18806,2e-05 L 569.18806,885.83002 L 2.0545631e-17,885.83002 L 2.0545631e-17,2e-05 z "
       id="rect6643" />
    <g
       id="g11131"
       transform="matrix(0,1,1,0,-216.7894,41.94202)" />
    <g
       id="g14002"
       transform="matrix(1,0,0,0.333332,-217.5504,343.2646)" />
    <g
       style="display:inline"
       id="g11144"
       transform="translate(-190.5354,46.81968)">
      <path
         id="rect1307"
         d="M 316.3228,78.96788 L 631.6772,78.96788 L 631.6772,713.21959 L 316.3228,713.21959 L 316.3228,78.96788 z "
         style="color:#000000;fill:#e19b4e;fill-opacity:1;fill-rule:evenodd;stroke:#ffffff;stroke-width:3.54330683;stroke-linecap:butt;stroke-linejoin:miter;marker:none;marker-start:none;marker-mid:none;marker-end:none;stroke-miterlimit:4;stroke-dashoffset:0;stroke-opacity:1;visibility:visible;display:inline;overflow:visible" />
      <g
         id="g14014"
         transform="translate(0,53.14966)">
        <g
           id="g11033"
           transform="matrix(0.5,0,0,1,194.8053,-268.7663)">
          <path
             id="path11037"
             d="M 140.27908,505.4112 L 150.909,505.4112 L 150.909,508.95451 L 140.27908,508.95451 L 140.27908,505.4112 z "
             style="color:#000000;fill:#ffffff;fill-opacity:1;fill-rule:evenodd;stroke:none;stroke-width:1;stroke-linecap:butt;stroke-linejoin:miter;marker:none;marker-start:none;marker-mid:none;marker-end:none;stroke-miterlimit:4;stroke-dashoffset:0;stroke-opacity:1;visibility:visible;display:inline;overflow:visible" />
          <path
             id="path11041"
             d="M 165.08223,505.4112 L 175.71215,505.4112 L 175.71215,508.95451 L 165.08223,508.95451 L 165.08223,505.4112 z "
             style="color:#000000;fill:#ffffff;fill-opacity:1;fill-rule:evenodd;stroke:none;stroke-width:1;stroke-linecap:butt;stroke-linejoin:miter;marker:none;marker-start:none;marker-mid:none;marker-end:none;stroke-miterlimit:4;stroke-dashoffset:0;stroke-opacity:1;visibility:visible;display:inline;overflow:visible" />
          <path
             id="path11045"
             d="M 115.47593,505.4112 L 126.10585,505.4112 L 126.10585,508.95451 L 115.47593,508.95451 L 115.47593,505.4112 z "
             style="color:#000000;fill:#ffffff;fill-opacity:1;fill-rule:evenodd;stroke:none;stroke-width:1;stroke-linecap:butt;stroke-linejoin:miter;marker:none;marker-start:none;marker-mid:none;marker-end:none;stroke-miterlimit:4;stroke-dashoffset:0;stroke-opacity:1;visibility:visible;display:inline;overflow:visible" />
          <path
             id="path11049"
             d="M 189.88537,505.4112 L 200.51529,505.4112 L 200.51529,508.95451 L 189.88537,508.95451 L 189.88537,505.4112 z "
             style="color:#000000;fill:#ffffff;fill-opacity:1;fill-rule:evenodd;stroke:none;stroke-width:1;stroke-linecap:butt;stroke-linejoin:miter;marker:none;marker-start:none;marker-mid:none;marker-end:none;stroke-miterlimit:4;stroke-dashoffset:0;stroke-opacity:1;visibility:visible;display:inline;overflow:visible" />
          <path
             id="path11053"
             d="M 214.68852,505.4112 L 225.31844,505.4112 L 225.31844,508.95451 L 214.68852,508.95451 L 214.68852,505.4112 z "
             style="color:#000000;fill:#ffffff;fill-opacity:1;fill-rule:evenodd;stroke:none;stroke-width:1;stroke-linecap:butt;stroke-linejoin:miter;marker:none;marker-start:none;marker-mid:none;marker-end:none;stroke-miterlimit:4;stroke-dashoffset:0;stroke-opacity:1;visibility:visible;display:inline;overflow:visible" />
        </g>
        <g
           id="g11055"
           transform="matrix(-0.5,0,0,1,753.1947,-268.7663)">
          <path
             id="path11059"
             d="M 140.27908,505.4112 L 150.909,505.4112 L 150.909,508.95451 L 140.27908,508.95451 L 140.27908,505.4112 z "
             style="color:#000000;fill:#ffffff;fill-opacity:1;fill-rule:evenodd;stroke:none;stroke-width:1;stroke-linecap:butt;stroke-linejoin:miter;marker:none;marker-start:none;marker-mid:none;marker-end:none;stroke-miterlimit:4;stroke-dashoffset:0;stroke-opacity:1;visibility:visible;display:inline;overflow:visible" />
          <path
             id="path11063"
             d="M 165.08223,505.4112 L 175.71215,505.4112 L 175.71215,508.95451 L 165.08223,508.95451 L 165.08223,505.4112 z "
             style="color:#000000;fill:#ffffff;fill-opacity:1;fill-rule:evenodd;stroke:none;stroke-width:1;stroke-linecap:butt;stroke-linejoin:miter;marker:none;marker-start:none;marker-mid:none;marker-end:none;stroke-miterlimit:4;stroke-dashoffset:0;stroke-opacity:1;visibility:visible;display:inline;overflow:visible" />
          <path
             id="path11067"
             d="M 115.47593,505.4112 L 126.10585,505.4112 L 126.10585,508.95451 L 115.47593,508.95451 L 115.47593,505.4112 z "
             style="color:#000000;fill:#ffffff;fill-opacity:1;fill-rule:evenodd;stroke:none;stroke-width:1;stroke-linecap:butt;stroke-linejoin:miter;marker:none;marker-start:none;marker-mid:none;marker-end:none;stroke-miterlimit:4;stroke-dashoffset:0;stroke-opacity:1;visibility:visible;display:inline;overflow:visible" />
          <path
             id="path11071"
             d="M 189.88537,505.4112 L 200.51529,505.4112 L 200.51529,508.95451 L 189.88537,508.95451 L 189.88537,505.4112 z "
             style="color:#000000;fill:#ffffff;fill-opacity:1;fill-rule:evenodd;stroke:none;stroke-width:1;stroke-linecap:butt;stroke-linejoin:miter;marker:none;marker-start:none;marker-mid:none;marker-end:none;stroke-miterlimit:4;stroke-dashoffset:0;stroke-opacity:1;visibility:visible;display:inline;overflow:visible" />
          <path
             id="path11075"
             d="M 214.68852,505.4112 L 225.31844,505.4112 L 225.31844,508.95451 L 214.68852,508.95451 L 214.68852,505.4112 z "
             style="color:#000000;fill:#ffffff;fill-opacity:1;fill-rule:evenodd;stroke:none;stroke-width:1;stroke-linecap:butt;stroke-linejoin:miter;marker:none;marker-start:none;marker-mid:none;marker-end:none;stroke-miterlimit:4;stroke-dashoffset:0;stroke-opacity:1;visibility:visible;display:inline;overflow:visible" />
        </g>
      </g>
      <g
         transform="matrix(0,-1,1,0,98.56501,750.2454)"
         id="g11121">
        <path
           id="path11119"
           d="M 685.45079,531.34053 L 680.13583,531.34053 L 680.13583,534.88384 L 685.45079,534.88384 L 685.45079,531.34053 z "
           style="color:#000000;fill:#ffffff;fill-opacity:1;fill-rule:evenodd;stroke:none;stroke-width:1;stroke-linecap:butt;stroke-linejoin:miter;marker:none;marker-start:none;marker-mid:none;marker-end:none;stroke-miterlimit:4;stroke-dashoffset:0;stroke-opacity:1;visibility:visible;display:inline;overflow:visible" />
      </g>
      <g
         transform="matrix(0,-1,1,0,-216.7894,750.2454)"
         id="g11125">
        <path
           id="path11129"
           d="M 685.45079,531.34053 L 680.13583,531.34053 L 680.13583,534.88384 L 685.45079,534.88384 L 685.45079,531.34053 z "
           style="color:#000000;fill:#ffffff;fill-opacity:1;fill-rule:evenodd;stroke:none;stroke-width:1;stroke-linecap:butt;stroke-linejoin:miter;marker:none;marker-start:none;marker-mid:none;marker-end:none;stroke-miterlimit:4;stroke-dashoffset:0;stroke-opacity:1;visibility:visible;display:inline;overflow:visible" />
      </g>
      <path
         id="path11135"
         d="M 685.45079,531.34053 L 680.13583,531.34053 L 680.13583,534.88384 L 685.45079,534.88384 L 685.45079,531.34053 z "
         style="color:#000000;fill:#ffffff;fill-opacity:1;fill-rule:evenodd;stroke:none;stroke-width:1;stroke-linecap:butt;stroke-linejoin:miter;marker:none;marker-start:none;marker-mid:none;marker-end:none;stroke-miterlimit:4;stroke-dashoffset:0;stroke-opacity:1;visibility:visible;display:inline;overflow:visible"
         transform="matrix(0,1,1,0,-216.7894,41.94202)" />
      <g
         transform="matrix(0,1,1,0,98.56501,41.94202)"
         id="g11137">
        <path
           id="path11141"
           d="M 685.45079,531.34053 L 680.13583,531.34053 L 680.13583,534.88384 L 685.45079,534.88384 L 685.45079,531.34053 z "
           style="color:#000000;fill:#ffffff;fill-opacity:1;fill-rule:evenodd;stroke:none;stroke-width:1;stroke-linecap:butt;stroke-linejoin:miter;marker:none;marker-start:none;marker-mid:none;marker-end:none;stroke-miterlimit:4;stroke-dashoffset:0;stroke-opacity:1;visibility:visible;display:inline;overflow:visible" />
      </g>
      <g
         id="g14031"
         transform="translate(0,262.2047)">
        <g
           id="g14035"
           transform="matrix(0.5,0,0,1,194.8053,-268.7663)">
          <path
             id="path14037"
             d="M 140.27908,505.4112 L 150.909,505.4112 L 150.909,508.95451 L 140.27908,508.95451 L 140.27908,505.4112 z "
             style="color:#000000;fill:#ffffff;fill-opacity:1;fill-rule:evenodd;stroke:none;stroke-width:1;stroke-linecap:butt;stroke-linejoin:miter;marker:none;marker-start:none;marker-mid:none;marker-end:none;stroke-miterlimit:4;stroke-dashoffset:0;stroke-opacity:1;visibility:visible;display:inline;overflow:visible" />
          <path
             id="path14039"
             d="M 165.08223,505.4112 L 175.71215,505.4112 L 175.71215,508.95451 L 165.08223,508.95451 L 165.08223,505.4112 z "
             style="color:#000000;fill:#ffffff;fill-opacity:1;fill-rule:evenodd;stroke:none;stroke-width:1;stroke-linecap:butt;stroke-linejoin:miter;marker:none;marker-start:none;marker-mid:none;marker-end:none;stroke-miterlimit:4;stroke-dashoffset:0;stroke-opacity:1;visibility:visible;display:inline;overflow:visible" />
          <path
             id="path14041"
             d="M 115.47593,505.4112 L 126.10585,505.4112 L 126.10585,508.95451 L 115.47593,508.95451 L 115.47593,505.4112 z "
             style="color:#000000;fill:#ffffff;fill-opacity:1;fill-rule:evenodd;stroke:none;stroke-width:1;stroke-linecap:butt;stroke-linejoin:miter;marker:none;marker-start:none;marker-mid:none;marker-end:none;stroke-miterlimit:4;stroke-dashoffset:0;stroke-opacity:1;visibility:visible;display:inline;overflow:visible" />
          <path
             id="path14043"
             d="M 189.88537,505.4112 L 200.51529,505.4112 L 200.51529,508.95451 L 189.88537,508.95451 L 189.88537,505.4112 z "
             style="color:#000000;fill:#ffffff;fill-opacity:1;fill-rule:evenodd;stroke:none;stroke-width:1;stroke-linecap:butt;stroke-linejoin:miter;marker:none;marker-start:none;marker-mid:none;marker-end:none;stroke-miterlimit:4;stroke-dashoffset:0;stroke-opacity:1;visibility:visible;display:inline;overflow:visible" />
          <path
             id="path14045"
             d="M 214.68852,505.4112 L 225.31844,505.4112 L 225.31844,508.95451 L 214.68852,508.95451 L 214.68852,505.4112 z "
             style="color:#000000;fill:#ffffff;fill-opacity:1;fill-rule:evenodd;stroke:none;stroke-width:1;stroke-linecap:butt;stroke-linejoin:miter;marker:none;marker-start:none;marker-mid:none;marker-end:none;stroke-miterlimit:4;stroke-dashoffset:0;stroke-opacity:1;visibility:visible;display:inline;overflow:visible" />
        </g>
        <g
           id="g14047"
           transform="matrix(-0.5,0,0,1,753.1947,-268.7663)">
          <path
             id="path14049"
             d="M 140.27908,505.4112 L 150.909,505.4112 L 150.909,508.95451 L 140.27908,508.95451 L 140.27908,505.4112 z "
             style="color:#000000;fill:#ffffff;fill-opacity:1;fill-rule:evenodd;stroke:none;stroke-width:1;stroke-linecap:butt;stroke-linejoin:miter;marker:none;marker-start:none;marker-mid:none;marker-end:none;stroke-miterlimit:4;stroke-dashoffset:0;stroke-opacity:1;visibility:visible;display:inline;overflow:visible" />
          <path
             id="path14051"
             d="M 165.08223,505.4112 L 175.71215,505.4112 L 175.71215,508.95451 L 165.08223,508.95451 L 165.08223,505.4112 z "
             style="color:#000000;fill:#ffffff;fill-opacity:1;fill-rule:evenodd;stroke:none;stroke-width:1;stroke-linecap:butt;stroke-linejoin:miter;marker:none;marker-start:none;marker-mid:none;marker-end:none;stroke-miterlimit:4;stroke-dashoffset:0;stroke-opacity:1;visibility:visible;display:inline;overflow:visible" />
          <path
             id="path14053"
             d="M 115.47593,505.4112 L 126.10585,505.4112 L 126.10585,508.95451 L 115.47593,508.95451 L 115.47593,505.4112 z "
             style="color:#000000;fill:#ffffff;fill-opacity:1;fill-rule:evenodd;stroke:none;stroke-width:1;stroke-linecap:butt;stroke-linejoin:miter;marker:none;marker-start:none;marker-mid:none;marker-end:none;stroke-miterlimit:4;stroke-dashoffset:0;stroke-opacity:1;visibility:visible;display:inline;overflow:visible" />
          <path
             id="path14055"
             d="M 189.88537,505.4112 L 200.51529,505.4112 L 200.51529,508.95451 L 189.88537,508.95451 L 189.88537,505.4112 z "
             style="color:#000000;fill:#ffffff;fill-opacity:1;fill-rule:evenodd;stroke:none;stroke-width:1;stroke-linecap:butt;stroke-linejoin:miter;marker:none;marker-start:none;marker-mid:none;marker-end:none;stroke-miterlimit:4;stroke-dashoffset:0;stroke-opacity:1;visibility:visible;display:inline;overflow:visible" />
          <path
             id="path14057"
             d="M 214.68852,505.4112 L 225.31844,505.4112 L 225.31844,508.95451 L 214.68852,508.95451 L 214.68852,505.4112 z "
             style="color:#000000;fill:#ffffff;fill-opacity:1;fill-rule:evenodd;stroke:none;stroke-width:1;stroke-linecap:butt;stroke-linejoin:miter;marker:none;marker-start:none;marker-mid:none;marker-end:none;stroke-miterlimit:4;stroke-dashoffset:0;stroke-opacity:1;visibility:visible;display:inline;overflow:visible" />
        </g>
      </g>
      <path
         id="path11029"
         d="M 316.32284,394.32208 L 631.67716,394.32208 L 631.67716,397.86539 L 316.32284,397.86539 L 316.32284,394.32208 z "
         style="color:#000000;fill:#ffffff;fill-opacity:1;fill-rule:evenodd;stroke:none;stroke-width:1;stroke-linecap:butt;stroke-linejoin:miter;marker:none;marker-start:none;marker-mid:none;marker-end:none;stroke-miterlimit:4;stroke-dashoffset:0;stroke-opacity:1;visibility:visible;display:inline;overflow:visible" />
      <path
         id="path14942"
         d="M 316.32284,498.8496 L 631.67716,498.8496 L 631.67716,502.39291 L 316.32284,502.39291 L 316.32284,498.8496 z "
         style="color:#000000;fill:#ffffff;fill-opacity:1;fill-rule:evenodd;stroke:none;stroke-width:1;stroke-linecap:butt;stroke-linejoin:miter;marker:none;marker-start:none;marker-mid:none;marker-end:none;stroke-miterlimit:4;stroke-dashoffset:0;stroke-opacity:1;visibility:visible;display:inline;overflow:visible" />
      <path
         id="path14944"
         d="M 316.32284,289.79456 L 631.67716,289.79456 L 631.67716,293.33787 L 316.32284,293.33787 L 316.32284,289.79456 z "
         style="color:#000000;fill:#ffffff;fill-opacity:1;fill-rule:evenodd;stroke:none;stroke-width:1;stroke-linecap:butt;stroke-linejoin:miter;marker:none;marker-start:none;marker-mid:none;marker-end:none;stroke-miterlimit:4;stroke-dashoffset:0;stroke-opacity:1;visibility:visible;display:inline;overflow:visible" />
    </g>
    <rect
       style="opacity:1;color:#000000;fill:#61995e;fill-opacity:1;fill-rule:evenodd;stroke:none;stroke-width:0.99999982;stroke-linecap:butt;stroke-linejoin:miter;marker:none;marker-start:none;marker-mid:none;marker-end:none;stroke-miterlimit:4;stroke-dasharray:none;stroke-dashoffset:0;stroke-opacity:1;visibility:visible;display:inline;overflow:visible"
       id="rect5767"
       x="-320.4986"
       y="184.89157"
       width="0"
       height="0" />
  </g>
  <g
     inkscape:groupmode="layer"
     id="layer3"
     inkscape:label="Objetos"
     style="display:inline">
    <path
       style="font-size:92px;font-style:normal;font-variant:normal;font-weight:normal;font-stretch:normal;text-align:start;line-height:125%;writing-mode:lr-tb;text-anchor:start;fill:#044d78;fill-opacity:1;stroke:none;stroke-width:1px;stroke-linecap:butt;stroke-linejoin:miter;stroke-opacity:1;font-family:Smudger LET"
       d="M 219.60547,143.08655 C 222.31258,142.22411 224.21199,145.42793 224.71925,147.61282 C 225.36697,150.24258 224.19269,153.08108 222.7648,155.51225 C 221.68956,157.07245 220.95034,158.81364 219.74023,160.74084 C 217.0036,163.08138 216.06446,166.9251 214.05507,169.90167 C 213.56411,172.08855 212.03357,173.38931 211.74414,175.5552 C 210.66581,176.88916 210.41261,179.6394 209.49805,181.04553 C 209.75009,182.76046 208.70502,185.17218 208.64453,187.37952 C 207.80616,189.1979 208.31495,190.90784 207.56641,193.03967 C 207.39307,195.52448 206.71331,197.7143 205.70713,199.93972 C 205.59237,202.30482 203.69618,202.43496 202.33075,203.57093 C 202.33802,194.63259 201.90978,185.36339 204.17025,176.54678 C 205.59749,171.4473 207.54426,166.48606 209.22852,161.45959 C 206.46537,163.69362 202.7542,166.54648 199.15913,164.27793 C 196.09161,163.49798 197.50696,160.69614 199.34042,159.29323 C 205.39858,153.15473 212.15173,147.45931 219.60547,143.08655 z "
       id="text1944"
       transform="translate(-57,41)" />
    <path
       style="font-size:92px;font-style:normal;font-variant:normal;font-weight:normal;font-stretch:normal;text-align:start;line-height:125%;writing-mode:lr-tb;text-anchor:start;fill:#044d78;fill-opacity:1;stroke:none;stroke-width:1px;stroke-linecap:butt;stroke-linejoin:miter;stroke-opacity:1;display:inline;font-family:Smudger LET"
       d="M 211.47461,171.38733 C 208.97246,171.068 207.31329,173.31893 206.83948,175.50923 C 205.47622,178.74805 204.66155,182.25039 204.73718,185.7775 C 203.88132,188.33013 206.2162,191.3825 208.67076,189.02585 C 210.85764,187.20655 213.54268,185.49325 214.4179,182.6268 C 215.2004,179.91846 215.39782,176.95677 214.74512,174.2057 C 214.28965,172.41186 212.87187,172.01424 211.47461,171.38733 z M 224.86133,140.88538 C 226.53496,139.06836 230.33119,140.74019 228.53432,143.23031 C 227.34603,145.14375 225.84491,146.84748 225.14198,149.01142 C 223.80769,150.30016 223.41651,152.34513 221.68079,153.18736 C 219.66365,154.84347 218.50567,157.3603 216.8167,159.36228 C 215.66757,161.19821 213.7762,162.94931 213.33405,165.05064 C 215.58968,165.07741 218.10133,166.20807 219.97507,167.59872 C 221.17727,169.53712 222.36311,171.59807 222.78061,173.82664 C 223.73231,175.99562 223.17771,178.32282 223.0602,180.5866 C 222.55699,182.66621 222.24762,184.93223 220.56992,186.44308 C 219.42526,188.27681 217.72098,189.67232 216.08313,191.08543 C 213.95967,193.05551 211.28538,194.26419 208.64345,195.37763 C 206.08898,196.12967 203.19139,195.69253 200.8993,194.40107 C 196.96937,190.91409 196.56891,185.10399 197.39879,180.23507 C 198.32541,174.4687 201.42499,169.40255 204.18433,164.36015 C 206.50278,160.61517 208.8979,156.86773 211.82352,153.56058 C 214.09849,150.39702 216.9813,147.72496 219.75466,145.00484 C 221.39564,143.55693 223.17542,142.27868 224.86133,140.88538 z "
       id="text2835"
       transform="translate(27.65039,5.26563)" />
    <path
       style="font-size:92px;font-style:normal;font-variant:normal;font-weight:normal;font-stretch:normal;text-align:start;line-height:125%;writing-mode:lr-tb;text-anchor:start;fill:#044d78;fill-opacity:1;stroke:none;stroke-width:1px;stroke-linecap:butt;stroke-linejoin:miter;stroke-opacity:1;display:inline;font-family:Smudger LET"
       d="M 226.61328,148.70178 C 228.14363,148.43224 230.73056,149.06416 231.75836,149.85278 C 231.90539,151.72006 229.49888,152.68838 229.60684,154.60113 C 228.72301,156.15536 230.5276,157.73932 230.43164,159.43811 C 228.17457,159.86577 226.23838,161.25787 223.85609,161.44158 C 221.27383,161.79156 218.65246,161.44887 216.0506,161.51137 C 214.58448,161.21089 213.12311,160.78155 212.87114,162.71028 C 212.14834,164.35291 210.33142,166.36906 210.31089,167.78372 C 214.38472,169.52351 218.59654,171.14306 222.01254,174.0568 C 223.8616,175.31373 225.68732,177.37708 225.36795,179.7659 C 226.43437,181.57355 225.24857,183.14778 223.81997,184.29409 C 222.47094,185.47036 221.37458,186.33552 219.56048,186.66454 C 217.84153,187.08433 216.55558,188.34243 215.04803,189.10231 C 213.10295,189.54725 211.77597,191.34504 209.63068,191.29925 C 208.3063,192.25978 206.6545,191.27336 205.08773,191.78132 C 203.72775,192.31269 201.58102,192.71556 200.99696,191.69558 C 199.36465,191.83041 198.10055,193.11326 196.44478,191.9195 C 194.20667,191.98591 194.72746,189.32769 195.31389,188.08814 C 196.13888,186.67336 197.27012,185.46927 198.98161,185.00302 C 203.29837,183.60197 207.1987,181.18595 211.38624,179.47482 C 212.57388,178.88828 215.23947,177.55892 212.64393,176.87341 C 209.80428,175.41953 206.62772,174.56986 203.98478,172.77409 C 202.01006,171.04699 201.24136,168.14601 202.22708,165.70065 C 202.88783,163.35368 204.77878,161.613 205.9634,159.58958 C 205.05913,158.57602 203.92119,157.30941 203.77277,155.85997 C 204.87652,154.33976 206.46642,152.80993 207.45482,151.46952 C 209.61357,151.80716 211.38393,150.46568 213.49149,151.29932 C 214.7031,151.27979 216.31736,150.60565 217.82683,150.55903 C 219.45722,150.17829 221.11274,149.63933 222.80332,149.18736 C 224.08085,149.09769 225.32753,148.72467 226.61328,148.70178 z "
       id="text2839"
       transform="translate(185.6504,9.26563)" />
    <path
       style="font-size:92px;font-style:normal;font-variant:normal;font-weight:normal;font-stretch:normal;text-align:start;line-height:125%;writing-mode:lr-tb;text-anchor:start;fill:#044d78;fill-opacity:1;stroke:none;stroke-width:1px;stroke-linecap:butt;stroke-linejoin:miter;stroke-opacity:1;display:inline;font-family:Smudger LET"
       d="M 216.86523,147.89319 C 218.4304,145.98742 220.67264,146.53856 220.62065,149.18998 C 220.2311,151.68296 221.38268,153.50068 220.45806,155.91801 C 219.31318,160.47189 217.97575,164.97388 216.73047,169.50061 C 219.31941,168.80426 221.71949,167.70059 224.32805,167.08089 C 227.7216,166.01638 231.24416,165.28517 234.71361,164.43855 C 236.74333,164.32326 239.67426,162.80452 241.20156,163.87864 C 240.36729,166.43276 238.26397,168.108 235.49,168.68732 C 232.52519,169.95912 229.33035,170.88126 226.58343,172.53389 C 222.81139,174.02931 219.07881,175.64498 215.33789,177.22717 C 213.16755,178.23748 215.16779,181.31877 212.711,182.22822 C 212.38494,185.53045 211.06267,188.76175 210.35499,192.04719 C 209.4976,194.49254 208.72654,196.98447 207.82845,199.39541 C 206.81188,200.39073 206.65977,203.46538 205.60628,203.41383 C 206.01927,201.40754 204.5703,201.35824 205.02673,199.2412 C 205.53875,194.69884 205.84986,190.12013 206.80022,185.63669 C 206.64346,184.08123 208.72698,180.64895 206.95107,180.2445 C 204.32869,180.6472 201.40225,179.99868 199.03125,178.70959 C 196.26852,176.81187 196.82304,173.02515 198.08901,170.39723 C 201.3497,163.39375 205.71372,156.95967 210.38376,150.82542 C 211.41787,149.43862 214.66147,147.16134 214.52926,150.45714 C 213.04551,154.39322 210.13547,157.55739 208.03692,161.16602 C 206.12591,164.24807 204.16024,167.34388 202.77635,170.70113 C 201.87057,173.86971 205.33384,173.43684 207.29905,172.78354 C 210.90116,172.83262 209.96109,168.26296 211.13678,165.85736 C 212.71941,159.77418 214.59813,153.75699 216.86523,147.89319 z "
       id="text2843"
       transform="translate(139.6504,231.2656)" />
    <path
       style="font-size:92px;font-style:normal;font-variant:normal;font-weight:normal;font-stretch:normal;text-align:start;line-height:125%;writing-mode:lr-tb;text-anchor:start;fill:#044d78;fill-opacity:1;stroke:none;stroke-width:1px;stroke-linecap:butt;stroke-linejoin:miter;stroke-opacity:1;display:inline;font-family:Smudger LET"
       d="M 209.72266,152.47522 C 213.59639,151.74823 217.79819,150.40299 221.62121,152.04906 C 223.6936,152.95968 224.68928,155.05082 225.87588,156.82526 C 225.93706,158.39198 226.22164,159.97857 226.0866,161.53451 C 225.55494,163.02174 223.92005,163.69441 222.9959,164.94853 C 220.93425,165.67621 219.57853,167.77453 218.09757,168.99003 C 217.30875,169.99583 214.57065,171.49673 215.08806,172.3504 C 217.79699,173.18597 220.77489,173.7026 222.94663,175.65082 C 224.50304,176.95192 226.74415,178.72886 226.16695,181.00983 C 226.42746,182.89127 225.67774,185.13858 223.73824,185.48911 C 222.14926,186.32006 221.0542,187.86689 219.235,188.38076 C 217.72685,189.41765 216.05113,189.67659 214.49048,190.5357 C 213.05524,191.57627 210.96454,191.26115 209.47128,192.45488 C 207.50068,193.17144 205.92128,194.30415 203.88202,194.42991 C 201.29711,194.66765 199.15779,196.54881 196.6202,196.81423 C 195.0617,197.92804 193.40894,196.00404 191.89154,197.30815 C 190.07862,196.98648 191.90811,194.23227 193.08873,193.59259 C 195.50458,192.79425 197.47175,191.06775 199.72991,189.93232 C 204.47108,187.29021 209.34872,184.85775 213.98248,182.04175 C 215.01335,180.77303 211.91481,181.72297 211.26062,181.3159 C 209.09329,181.06792 206.43267,180.98234 205.26389,178.7958 C 203.5179,177.59831 202.69266,174.64309 204.7442,173.35837 C 206.14384,171.16308 208.4117,169.72727 210.3967,168.08777 C 213.17005,165.78301 215.98057,163.29524 217.71294,160.08563 C 217.3245,158.32676 214.08625,159.69603 212.70709,159.85853 C 210.18871,159.91426 207.85102,161.31008 205.35085,161.19666 C 203.5262,161.04335 201.22589,160.92234 200.13852,159.23732 C 199.29834,156.79519 202.30977,155.13431 204.21913,154.42937 C 206.05364,153.77799 207.88816,153.1266 209.72266,152.47522 z "
       id="text2847"
       transform="translate(51.6504,237.2656)" />
    <path
       style="font-size:92px;font-style:normal;font-variant:normal;font-weight:normal;font-stretch:normal;text-align:start;line-height:125%;writing-mode:lr-tb;text-anchor:start;fill:#044d78;fill-opacity:1;stroke:none;stroke-width:1px;stroke-linecap:butt;stroke-linejoin:miter;stroke-opacity:1;display:inline;font-family:Smudger LET"
       d="M 227.37695,148.88147 C 230.84307,148.76988 235.37578,148.78496 237.25708,152.28455 C 238.50418,154.36139 239.92968,156.39548 240.22343,158.83488 C 241.42182,162.4586 238.7411,166.35968 235.38455,167.63278 C 233.47625,168.96702 232.17163,170.88589 229.967,171.9736 C 227.74876,173.27309 225.84675,175.13018 223.42572,176.1056 C 221.41033,177.42235 219.92043,179.30422 217.93438,180.77229 C 217.26859,181.15826 214.71894,182.56009 216.90149,182.29073 C 219.96328,181.68225 222.95363,181.63842 226.0731,181.41169 C 229.01923,181.63556 231.95537,181.25223 234.61045,182.2354 C 236.51361,181.42147 238.51646,183.42783 240.55641,182.60694 C 243.22541,182.90821 246.13637,183.00734 248.51133,184.28885 C 250.19004,185.06836 251.92765,186.72021 249.7891,187.46132 C 247.32202,187.87277 244.90687,188.35177 242.45257,188.50121 C 240.52164,188.8711 238.41149,188.82296 236.7207,190.25452 C 233.50999,190.45827 230.4709,191.71905 227.24418,191.87201 C 224.35053,192.13474 221.57731,193.00372 218.677,193.22925 C 216.43404,193.8215 214.1153,193.71044 211.84549,194.05991 C 208.69174,194.84783 205.4317,195.1341 202.28599,195.92978 C 199.4741,196.78095 197.74981,194.01064 195.96764,192.39925 C 192.79534,189.90348 196.92206,186.32628 198.9763,184.55936 C 204.895,179.82703 211.49718,175.96039 216.95044,170.64746 C 220.78062,167.20624 224.32549,163.39629 227.42784,159.28243 C 228.29951,158.01297 224.74633,158.74212 223.79568,158.67623 C 221.56917,159.0692 219.3278,159.97292 217.16306,160.85235 C 214.47504,162.06285 211.64886,164.25015 208.55651,163.36691 C 205.92175,162.03294 208.51063,158.99505 210.02623,157.76845 C 212.30671,155.85403 214.45495,153.75792 217.18311,152.46274 C 220.25219,150.53021 223.79099,149.38169 227.37695,148.88147 z "
       id="text2851"
       transform="translate(-15.3496,194.2656)" />
    <path
       style="font-size:92px;font-style:normal;font-variant:normal;font-weight:normal;font-stretch:normal;text-align:start;line-height:125%;writing-mode:lr-tb;text-anchor:start;fill:#e51919;fill-opacity:1;stroke:none;stroke-width:1px;stroke-linecap:butt;stroke-linejoin:miter;stroke-opacity:1;display:inline;font-family:Smudger LET"
       d="M 219.60547,143.08655 C 222.18332,142.23078 223.82844,145.11383 224.66932,147.08365 C 224.92733,149.09713 225.01939,151.02314 224.04939,152.99201 C 223.27141,154.6945 222.3004,156.24011 221.4612,157.7779 C 220.61113,159.64359 219.22696,160.94249 218.17944,162.60368 C 216.36386,164.8634 215.60409,167.71828 213.94531,170.08459 C 213.3723,171.81309 212.80846,173.32903 211.71269,174.73866 C 211.83225,176.73958 209.83457,178.36041 209.97617,180.53549 C 209.09984,183.0848 208.92609,185.97385 208.33028,188.55957 C 208.05292,191.01785 207.4118,193.63698 207.08512,196.24804 C 206.68872,197.96605 205.60433,199.46192 205.32438,201.28877 C 204.96827,202.38671 203.2698,202.6727 202.44737,203.58147 C 202.03817,201.03514 202.4574,198.09589 202.33186,195.40378 C 202.34625,189.75724 202.41863,184.05313 203.78211,178.54112 C 204.5719,173.90059 206.53821,169.58094 207.953,165.11378 C 208.20708,163.877 210.25953,160.16872 207.97271,162.38802 C 205.84298,164.06318 203.02172,165.99157 200.22793,164.72367 C 198.32698,164.11333 195.99422,162.6915 198.04261,160.71289 C 201.95327,156.19399 206.6527,152.42286 211.31122,148.6969 C 213.96734,146.66105 216.64328,144.66842 219.60547,143.08655 z "
       id="text2959"
       transform="translate(203.2353,542.7246)" />
    <path
       style="font-size:92px;font-style:normal;font-variant:normal;font-weight:normal;font-stretch:normal;text-align:start;line-height:125%;writing-mode:lr-tb;text-anchor:start;fill:#e51919;fill-opacity:1;stroke:none;stroke-width:1px;stroke-linecap:butt;stroke-linejoin:miter;stroke-opacity:1;display:inline;font-family:Smudger LET"
       d="M 211.47461,171.38733 C 209.14856,171.33519 207.92588,172.40134 207.16745,174.59006 C 206.63421,176.24773 205.77527,177.75528 205.55112,179.50203 C 204.95512,181.45609 204.72148,183.12587 204.77275,185.09312 C 204.70841,186.76401 204.26535,189.8543 206.67614,189.88927 C 208.94605,189.421 210.70544,187.25771 212.48343,185.76437 C 214.37076,184.06884 214.8844,181.36295 215.0943,178.95464 C 215.06329,176.73973 215.44616,174.02824 213.55914,172.43101 C 213.14199,171.61263 212.02389,172.11748 211.47461,171.38733 z M 224.86133,140.88538 C 226.26772,139.71088 229.25298,139.78257 228.93826,142.20634 C 228.41059,144.11689 226.74915,145.48725 225.84351,147.26734 C 225.38722,149.32906 224.44113,149.61132 223.35476,151.43934 C 223.03977,153.01111 220.88299,153.01842 220.2884,154.72386 C 218.59033,156.66387 217.35111,158.96514 215.5625,160.83069 C 215.36961,162.39016 212.4398,164.30028 213.4851,165.23744 C 215.87572,164.78226 217.42694,166.38195 219.41592,167.05948 C 221.07601,168.39052 221.28132,170.64532 222.49578,172.18541 C 222.50395,173.93392 223.77758,175.67392 223.25063,177.55262 C 223.15829,179.6221 223.1846,181.60904 222.20231,183.4468 C 222.30578,185.2705 220.31722,186.18077 219.68526,187.80896 C 218.28363,188.98325 217.08207,190.46629 215.50979,191.48903 C 213.75229,193.28394 211.51596,193.97695 209.38802,195.09808 C 206.77526,196.24339 203.76638,195.74122 201.22778,194.65097 C 199.42819,193.36852 198.40185,191.26152 197.67084,189.23063 C 196.36299,184.27703 197.24694,178.97264 199.07803,174.26838 C 201.07067,169.95097 203.25266,165.70907 205.81135,161.69459 C 207.82729,158.86155 209.6327,155.83502 212.04821,153.32365 C 213.73521,150.7571 216.08314,148.74563 218.17351,146.51583 C 220.19342,144.40061 222.61443,142.74228 224.86133,140.88538 z "
       id="text2963"
       transform="translate(63.8857,555.9902)" />
    <path
       style="font-size:92px;font-style:normal;font-variant:normal;font-weight:normal;font-stretch:normal;text-align:start;line-height:125%;writing-mode:lr-tb;text-anchor:start;fill:#e51919;fill-opacity:1;stroke:none;stroke-width:1px;stroke-linecap:butt;stroke-linejoin:miter;stroke-opacity:1;display:inline;font-family:Smudger LET"
       d="M 226.61328,148.70178 C 228.14363,148.43224 230.73056,149.06416 231.75836,149.85278 C 231.90539,151.72006 229.49888,152.68838 229.60684,154.60113 C 228.72301,156.15536 230.5276,157.73932 230.43164,159.43811 C 228.17457,159.86577 226.23838,161.25787 223.85609,161.44158 C 221.27383,161.79156 218.65246,161.44887 216.0506,161.51137 C 214.58448,161.21089 213.12311,160.78155 212.87114,162.71028 C 212.14834,164.35291 210.33142,166.36906 210.31089,167.78372 C 214.38472,169.52351 218.59654,171.14306 222.01254,174.0568 C 223.8616,175.31373 225.68732,177.37708 225.36795,179.7659 C 226.43437,181.57355 225.24857,183.14778 223.81997,184.29409 C 222.47094,185.47036 221.37458,186.33552 219.56048,186.66454 C 217.84153,187.08433 216.55558,188.34243 215.04803,189.10231 C 213.10295,189.54725 211.77597,191.34504 209.63068,191.29925 C 208.3063,192.25978 206.6545,191.27336 205.08773,191.78132 C 203.72775,192.31269 201.58102,192.71556 200.99696,191.69558 C 199.36465,191.83041 198.10055,193.11326 196.44478,191.9195 C 194.20667,191.98591 194.72746,189.32769 195.31389,188.08814 C 196.13888,186.67336 197.27012,185.46927 198.98161,185.00302 C 203.29837,183.60197 207.1987,181.18595 211.38624,179.47482 C 212.57388,178.88828 215.23947,177.55892 212.64393,176.87341 C 209.80428,175.41953 206.62772,174.56986 203.98478,172.77409 C 202.01006,171.04699 201.24136,168.14601 202.22708,165.70065 C 202.88783,163.35368 204.77878,161.613 205.9634,159.58958 C 205.05913,158.57602 203.92119,157.30941 203.77277,155.85997 C 204.87652,154.33976 206.46642,152.80993 207.45482,151.46952 C 209.61357,151.80716 211.38393,150.46568 213.49149,151.29932 C 214.7031,151.27979 216.31736,150.60565 217.82683,150.55903 C 219.45722,150.17829 221.11274,149.63933 222.80332,149.18736 C 224.08085,149.09769 225.32753,148.72467 226.61328,148.70178 z "
       id="text2967"
       transform="translate(-54.1143,534.9902)" />
    <path
       style="font-size:92px;font-style:normal;font-variant:normal;font-weight:normal;font-stretch:normal;text-align:start;line-height:125%;writing-mode:lr-tb;text-anchor:start;fill:#e51919;fill-opacity:1;stroke:none;stroke-width:1px;stroke-linecap:butt;stroke-linejoin:miter;stroke-opacity:1;display:inline;font-family:Smudger LET"
       d="M 216.86523,147.89319 C 218.4304,145.98742 220.67264,146.53856 220.62065,149.18998 C 220.2311,151.68296 221.38268,153.50068 220.45806,155.91801 C 219.31318,160.47189 217.97575,164.97388 216.73047,169.50061 C 219.31941,168.80426 221.71949,167.70059 224.32805,167.08089 C 227.7216,166.01638 231.24416,165.28517 234.71361,164.43855 C 236.74333,164.32326 239.67426,162.80452 241.20156,163.87864 C 240.36729,166.43276 238.26397,168.108 235.49,168.68732 C 232.52519,169.95912 229.33035,170.88126 226.58343,172.53389 C 222.81139,174.02931 219.07881,175.64498 215.33789,177.22717 C 213.16755,178.23748 215.16779,181.31877 212.711,182.22822 C 212.38494,185.53045 211.06267,188.76175 210.35499,192.04719 C 209.4976,194.49254 208.72654,196.98447 207.82845,199.39541 C 206.81188,200.39073 206.65977,203.46538 205.60628,203.41383 C 206.01927,201.40754 204.5703,201.35824 205.02673,199.2412 C 205.53875,194.69884 205.84986,190.12013 206.80022,185.63669 C 206.64346,184.08123 208.72698,180.64895 206.95107,180.2445 C 204.32869,180.6472 201.40225,179.99868 199.03125,178.70959 C 196.26852,176.81187 196.82304,173.02515 198.08901,170.39723 C 201.3497,163.39375 205.71372,156.95967 210.38376,150.82542 C 211.41787,149.43862 214.66147,147.16134 214.52926,150.45714 C 213.04551,154.39322 210.13547,157.55739 208.03692,161.16602 C 206.12591,164.24807 204.16024,167.34388 202.77635,170.70113 C 201.87057,173.86971 205.33384,173.43684 207.29905,172.78354 C 210.90116,172.83262 209.96109,168.26296 211.13678,165.85736 C 212.71941,159.77418 214.59813,153.75699 216.86523,147.89319 z "
       id="text2971"
       transform="translate(-49.1143,340.9902)" />
    <path
       style="font-size:92px;font-style:normal;font-variant:normal;font-weight:normal;font-stretch:normal;text-align:start;line-height:125%;writing-mode:lr-tb;text-anchor:start;fill:#e51919;fill-opacity:1;stroke:none;stroke-width:1px;stroke-linecap:butt;stroke-linejoin:miter;stroke-opacity:1;display:inline;font-family:Smudger LET"
       d="M 209.72266,152.47522 C 213.59639,151.74823 217.79819,150.40299 221.62121,152.04906 C 223.6936,152.95968 224.68928,155.05082 225.87588,156.82526 C 225.93706,158.39198 226.22164,159.97857 226.0866,161.53451 C 225.55494,163.02174 223.92005,163.69441 222.9959,164.94853 C 220.93425,165.67621 219.57853,167.77453 218.09757,168.99003 C 217.30875,169.99583 214.57065,171.49673 215.08806,172.3504 C 217.79699,173.18597 220.77489,173.7026 222.94663,175.65082 C 224.50304,176.95192 226.74415,178.72886 226.16695,181.00983 C 226.42746,182.89127 225.67774,185.13858 223.73824,185.48911 C 222.14926,186.32006 221.0542,187.86689 219.235,188.38076 C 217.72685,189.41765 216.05113,189.67659 214.49048,190.5357 C 213.05524,191.57627 210.96454,191.26115 209.47128,192.45488 C 207.50068,193.17144 205.92128,194.30415 203.88202,194.42991 C 201.29711,194.66765 199.15779,196.54881 196.6202,196.81423 C 195.0617,197.92804 193.40894,196.00404 191.89154,197.30815 C 190.07862,196.98648 191.90811,194.23227 193.08873,193.59259 C 195.50458,192.79425 197.47175,191.06775 199.72991,189.93232 C 204.47108,187.29021 209.34872,184.85775 213.98248,182.04175 C 215.01335,180.77303 211.91481,181.72297 211.26062,181.3159 C 209.09329,181.06792 206.43267,180.98234 205.26389,178.7958 C 203.5179,177.59831 202.69266,174.64309 204.7442,173.35837 C 206.14384,171.16308 208.4117,169.72727 210.3967,168.08777 C 213.17005,165.78301 215.98057,163.29524 217.71294,160.08563 C 217.3245,158.32676 214.08625,159.69603 212.70709,159.85853 C 210.18871,159.91426 207.85102,161.31008 205.35085,161.19666 C 203.5262,161.04335 201.22589,160.92234 200.13852,159.23732 C 199.29834,156.79519 202.30977,155.13431 204.21913,154.42937 C 206.05364,153.77799 207.88816,153.1266 209.72266,152.47522 z "
       id="text2975"
       transform="translate(68.8857,327.9902)" />
    <path
       style="font-size:92px;font-style:normal;font-variant:normal;font-weight:normal;font-stretch:normal;text-align:start;line-height:125%;writing-mode:lr-tb;text-anchor:start;fill:#e51919;fill-opacity:1;stroke:none;stroke-width:1px;stroke-linecap:butt;stroke-linejoin:miter;stroke-opacity:1;display:inline;font-family:Smudger LET"
       d="M 227.37695,148.88147 C 230.84307,148.76988 235.37578,148.78496 237.25708,152.28455 C 238.50418,154.36139 239.92968,156.39548 240.22343,158.83488 C 241.42182,162.4586 238.7411,166.35968 235.38455,167.63278 C 233.47625,168.96702 232.17163,170.88589 229.967,171.9736 C 227.74876,173.27309 225.84675,175.13018 223.42572,176.1056 C 221.41033,177.42235 219.92043,179.30422 217.93438,180.77229 C 217.26859,181.15826 214.71894,182.56009 216.90149,182.29073 C 219.96328,181.68225 222.95363,181.63842 226.0731,181.41169 C 229.01923,181.63556 231.95537,181.25223 234.61045,182.2354 C 236.51361,181.42147 238.51646,183.42783 240.55641,182.60694 C 243.22541,182.90821 246.13637,183.00734 248.51133,184.28885 C 250.19004,185.06836 251.92765,186.72021 249.7891,187.46132 C 247.32202,187.87277 244.90687,188.35177 242.45257,188.50121 C 240.52164,188.8711 238.41149,188.82296 236.7207,190.25452 C 233.50999,190.45827 230.4709,191.71905 227.24418,191.87201 C 224.35053,192.13474 221.57731,193.00372 218.677,193.22925 C 216.43404,193.8215 214.1153,193.71044 211.84549,194.05991 C 208.69174,194.84783 205.4317,195.1341 202.28599,195.92978 C 199.4741,196.78095 197.74981,194.01064 195.96764,192.39925 C 192.79534,189.90348 196.92206,186.32628 198.9763,184.55936 C 204.895,179.82703 211.49718,175.96039 216.95044,170.64746 C 220.78062,167.20624 224.32549,163.39629 227.42784,159.28243 C 228.29951,158.01297 224.74633,158.74212 223.79568,158.67623 C 221.56917,159.0692 219.3278,159.97292 217.16306,160.85235 C 214.47504,162.06285 211.64886,164.25015 208.55651,163.36691 C 205.92175,162.03294 208.51063,158.99505 210.02623,157.76845 C 212.30671,155.85403 214.45495,153.75792 217.18311,152.46274 C 220.25219,150.53021 223.79099,149.38169 227.37695,148.88147 z "
       id="text2979"
       transform="translate(182.8857,343.9902)" />
    <path
       style="fill:none;fill-opacity:0.75;fill-rule:evenodd;stroke:#044d78;stroke-width:5.31496048;stroke-linecap:butt;stroke-linejoin:miter;marker-end:none;stroke-miterlimit:4;stroke-dasharray:5.31496052, 10.62992105;stroke-dashoffset:0;stroke-opacity:1"
       d="M 176.27716,239.84384 C 196.11642,231.19772 235.94365,214.36397 274.06452,202.0069 C 354.77783,205.60817 358.45687,201.55592 383.54116,218.35538 C 384.7061,247.74613 374.57084,323.4791 372.87236,342.23426 C 349.29714,354.98985 305.82886,371.51935 271.93636,371.14291 C 258.73469,369.70128 232.66875,334.63512 219.38034,321.13123"
       id="path4109"
       sodipodi:nodetypes="cccccs"
       transform="matrix(0.991435,0,0,0.946241,1.385355,10.87125)" />
    <g
       id="g5187"
       transform="matrix(0.975713,-0.219053,0.219053,0.975713,-26.39917,77.74469)"
       inkscape:transform-center-x="6.1571251">
      <path
         style="color:#000000;fill:#044d78;fill-opacity:1;fill-rule:evenodd;stroke:none;stroke-width:5.31496048;stroke-linecap:butt;stroke-linejoin:miter;marker:none;stroke-miterlimit:4;stroke-dashoffset:0;stroke-opacity:1;visibility:visible;display:inline;overflow:visible"
         d="M 335.71875,163.96875 C 332.14943,162.13233 300.09375,174.3125 300.09375,174.3125 C 300.09375,174.3125 330.15399,190.9091 333.9375,189.53125 C 335.80077,188.8527 325.38516,180.87645 330.6875,179.0625 L 343.1875,179.9375 L 343.5625,174.625 L 331.0625,173.75 C 326.34732,172.47937 337.45434,164.86171 335.71875,163.96875 z "
         id="path5182"
         inkscape:transform-center-y="-11.280902"
         inkscape:transform-center-x="-4.8081976"
         transform="matrix(0.649807,0.7601,-0.7601,0.649807,97.61939,-90.67986)"
         sodipodi:nodetypes="ccsccccs" />
    </g>
    <path
       style="fill:none;fill-opacity:0.75;fill-rule:evenodd;stroke:#e51919;stroke-width:5.31496048;stroke-linecap:butt;stroke-linejoin:miter;marker-end:none;stroke-miterlimit:4;stroke-dasharray:5.31496052, 10.62992105;stroke-dashoffset:0;stroke-opacity:1;display:inline"
       d="M 196.34126,188.78946 C 256.08388,196.52389 234.10319,227.73256 330.0369,220.35751 C 351.12861,218.73606 377.17553,211.64036 385.02389,268.8976 C 391.35681,315.09901 424.47524,331.79033 351.85283,346.23853 C 330.34901,350.51671 302.96256,360.50762 269.07006,360.13118 C 262.46923,359.41037 238.08196,351.28448 216.07244,341.27542 C 194.06293,331.26635 179.20832,332.38797 177.34127,295.1035"
       id="path6966"
       sodipodi:nodetypes="cssscss"
       transform="matrix(-0.991435,0,0,-0.946241,564.7985,880.3343)" />
    <g
       style="fill:#e51919;fill-opacity:1;display:inline"
       id="g6968"
       transform="matrix(-0.794231,-0.607616,0.607616,-0.794231,363.5046,949.2401)"
       inkscape:transform-center-x="-3.1954174"
       inkscape:transform-center-y="6.7409572">
      <path
         style="color:#000000;fill:#e51919;fill-opacity:1;fill-rule:evenodd;stroke:none;stroke-width:5.31496048;stroke-linecap:butt;stroke-linejoin:miter;marker:none;stroke-miterlimit:4;stroke-dashoffset:0;stroke-opacity:1;visibility:visible;display:inline;overflow:visible"
         d="M 335.71875,163.96875 C 332.14943,162.13233 300.09375,174.3125 300.09375,174.3125 C 300.09375,174.3125 330.15399,190.9091 333.9375,189.53125 C 335.80077,188.8527 325.49072,183.05919 330.6875,179.0625 L 343.1875,179.9375 L 343.5625,174.625 L 331.0625,173.75 C 326.39808,169.92004 337.45434,164.86171 335.71875,163.96875 z "
         id="path6970"
         transform="matrix(0.649807,0.7601,-0.7601,0.649807,97.61939,-90.67986)"
         inkscape:transform-center-y="-11.280902"
         inkscape:transform-center-x="-4.8081976"
         sodipodi:nodetypes="ccsccccs" />
    </g>
  </g>
</svg>
